{"title":"The Jungle Book Jungle Party 2014 DVDRip x264 AC3-MiLLENiUM","uid":10561636,"size":1329685086,"categoryP":"video","categoryS":"movies","magnet":"?xt=urn:btih:f26625883e3a9c4583706d11854c8b9a87f7481b&amp;dn=The+Jungle+Book+Jungle+Party+2014+DVDRip+x264+AC3-MiLLENiUM&amp;tr=udp%3A%2F%2Ftracker.openbittorrent.com%3A80&amp;tr=udp%3A%2F%2Fopen.demonii.com%3A1337&amp;tr=udp%3A%2F%2Ftracker.coppersurfer.tk%3A6969&amp;tr=udp%3A%2F%2Fexodus.desync.com%3A6969","seeders":6,"leechers":2,"uploader":".BONE.","files":4,"time":1405463432,"description":"General\nComplete name: The Jungle Book Jungle Party 2014 DVDRip x264 AC3-MiLLENiUM.mkv\nFormat: Matroska\nFormat version: Version 2\nFile size: 1.22 GiB\nDuration: 1h 14mn\nOverall bit rate mode: Variable\nOverall bit rate: 2 349 Kbps\nEncoded date: UTC 2014-07-11 16:31:03\nWriting application: mkvmerge v7.0.0 ('Where We Going') 32bit built on Jun 9 2014 15:08:34\nWriting library: libebml v1.3.0 + libmatroska v1.4.1\n\nVideo\nID: 1\nFormat: AVC\nFormat/Info: Advanced Video Codec\nFormat profile: &lt;a class=&quot;__cf_email__&quot; href=&quot;/cdn-cgi/l/email-protection&quot; data-cfemail=&quot;f2ba9b959ab2bec6dcc3&quot;&gt;[email&amp;#160;protected]&lt;/a&gt;&lt;script cf-hash='f9e31' type=&quot;text/javascript&quot;&gt;\n/* &lt;![CDATA[ */!function(){try{var t=&quot;currentScript&quot;in document?document.currentScript:function(){for(var t=document.getElementsByTagName(&quot;script&quot;),e=t.length;e--;)if(t[e].getAttribute(&quot;cf-hash&quot;))return t[e]}();if(t&amp;&amp;t.previousSibling){var e,r,n,i,c=t.previousSibling,a=c.getAttribute(&quot;data-cfemail&quot;);if(a){for(e=&quot;&quot;,r=parseInt(a.substr(0,2),16),n=2;a.length-n;n+=2)i=parseInt(a.substr(n,2),16)^r,e+=String.fromCharCode(i);e=document.createTextNode(e),c.parentNode.replaceChild(e,c)}}}catch(u){}}();/* ]]&gt; */&lt;/script&gt;\nFormat settings, CABAC: Yes\nFormat settings, ReFrames: 3 frames\nCodec ID: V_MPEG4/ISO/AVC\nDuration: 1h 14mn\nBit rate mode: Variable\nBit rate: 1 854 Kbps\nMaximum bit rate: 40.0 Mbps\nWidth: 720 pixels\nHeight: 400 pixels\nDisplay aspect ratio: 16:9\nFrame rate mode: Constant\nFrame rate: 23.976 fps\nColor space: YUV\nChroma subsampling: 4:2:0\nBit depth: 8 bits\nScan type: Progressive\nBits/(Pixel*Frame): 0.268\nStream size: 985 MiB (79%)\nWriting library: x264 core 142 r2431 ac76440\n\nAudio\nID: 2\nFormat: AC-3\nFormat/Info: Audio Coding 3\nMode extension: CM (complete main)\nFormat settings, Endianness: Big\nCodec ID: A_AC3\nDuration: 1h 14mn\nBit rate mode: Constant\nBit rate: 448 Kbps\nChannel(s): 6 channels\nChannel positions: Front: L C R, Side: L R, LFE\nSampling rate: 48.0 KHz\nBit depth: 16 bits\nCompression mode: Lossy\nStream size: 238 MiB (19%)\nLanguage: English\nDefault: Yes\n\nForced: No Plot\nGet ready for a jungle jamboree! The jungle is roaring with excitement when Mowgli, Baloo and all their animal friends stir up fun and pandemonium in this party packed adventure. Baloo becomes royalty, bouncing baby elephants everywhere and Mowgli holds both a fishing and a fitness contest! Join Mowgli, Baloo and friends with over 60 minutes of Jungle fun in an exciting adventure for the entire pack","torrent":{"xt":"urn:btih:f26625883e3a9c4583706d11854c8b9a87f7481b","amp;dn":"The+Jungle+Book+Jungle+Party+2014+DVDRip+x264+AC3-MiLLENiUM","amp;tr":["udp%3A%2F%2Ftracker.openbittorrent.com%3A80","udp%3A%2F%2Fopen.demonii.com%3A1337","udp%3A%2F%2Ftracker.coppersurfer.tk%3A6969","udp%3A%2F%2Fexodus.desync.com%3A6969"],"infoHash":"f26625883e3a9c4583706d11854c8b9a87f7481b","infoHashBuffer":{"type":"Buffer","data":[242,102,37,136,62,58,156,69,131,112,109,17,133,76,139,154,135,247,72,27]},"announce":[],"urlList":[]}}